<?xml version="1.0" encoding="UTF-8" standalone="no"?>
<!-- Created with Inkscape (http://www.inkscape.org/) -->

<svg
   width="145.41463mm"
   height="66.154579mm"
   viewBox="0 0 145.41463 66.154579"
   version="1.1"
   id="svg1"
   inkscape:version="1.3.2 (091e20e, 2023-11-25, custom)"
   sodipodi:docname="new ts 2d.svg"
   inkscape:export-filename="ts.png"
   inkscape:export-xdpi="96"
   inkscape:export-ydpi="96"
   xmlns:inkscape="http://www.inkscape.org/namespaces/inkscape"
   xmlns:sodipodi="http://sodipodi.sourceforge.net/DTD/sodipodi-0.dtd"
   xmlns:xlink="http://www.w3.org/1999/xlink"
   xmlns="http://www.w3.org/2000/svg"
   xmlns:svg="http://www.w3.org/2000/svg">
  <sodipodi:namedview
     id="namedview1"
     pagecolor="#ffffff"
     bordercolor="#000000"
     borderopacity="0.25"
     inkscape:showpageshadow="2"
     inkscape:pageopacity="0.0"
     inkscape:pagecheckerboard="0"
     inkscape:deskcolor="#d1d1d1"
     inkscape:document-units="mm"
     showguides="true"
     inkscape:zoom="1.4142136"
     inkscape:cx="251.37646"
     inkscape:cy="115.61196"
     inkscape:window-width="1920"
     inkscape:window-height="991"
     inkscape:window-x="-9"
     inkscape:window-y="-9"
     inkscape:window-maximized="1"
     inkscape:current-layer="layer1"
     showgrid="false">
    <sodipodi:guide
       position="70.563823,270.76078"
       orientation="1,0"
       id="guide4"
       inkscape:locked="false" />
    <sodipodi:guide
       position="-47.976954,259.11621"
       orientation="0,-1"
       id="guide5"
       inkscape:locked="false" />
  </sodipodi:namedview>
  <defs
     id="defs1">
    <linearGradient
       id="linearGradient50"
       inkscape:collect="always">
      <stop
         style="stop-color:#cba400;stop-opacity:1;"
         offset="0.11992946"
         id="stop51" />
      <stop
         style="stop-color:#ffe800;stop-opacity:1;"
         offset="0.48148149"
         id="stop53" />
      <stop
         style="stop-color:#eacb4a;stop-opacity:1;"
         offset="0.92945325"
         id="stop52" />
    </linearGradient>
    <linearGradient
       id="swatch67"
       inkscape:swatch="solid">
      <stop
         style="stop-color:#000000;stop-opacity:1;"
         offset="0"
         id="stop68" />
    </linearGradient>
    <linearGradient
       inkscape:collect="always"
       xlink:href="#linearGradient71"
       id="linearGradient73"
       x1="148"
       y1="447.14749"
       x2="1021.6853"
       y2="447.14749"
       gradientUnits="userSpaceOnUse"
       spreadMethod="reflect"
       gradientTransform="translate(91.93548,586.55262)" />
    <linearGradient
       id="linearGradient71"
       inkscape:collect="always">
      <stop
         style="stop-color:#000000;stop-opacity:1;"
         offset="0"
         id="stop72" />
      <stop
         style="stop-color:#676767;stop-opacity:1;"
         offset="0.5925926"
         id="stop73" />
      <stop
         style="stop-color:#000000;stop-opacity:1;"
         offset="0.89241624"
         id="stop74" />
    </linearGradient>
    <linearGradient
       inkscape:collect="always"
       xlink:href="#linearGradient71"
       id="linearGradient1"
       gradientUnits="userSpaceOnUse"
       x1="148"
       y1="447.14749"
       x2="1021.6853"
       y2="447.14749"
       spreadMethod="reflect"
       gradientTransform="translate(91.93548,586.55262)" />
    <linearGradient
       inkscape:collect="always"
       xlink:href="#linearGradient71"
       id="linearGradient2"
       gradientUnits="userSpaceOnUse"
       x1="148"
       y1="447.14749"
       x2="1021.6853"
       y2="447.14749"
       spreadMethod="reflect"
       gradientTransform="translate(112.94563,477.44229)" />
    <linearGradient
       inkscape:collect="always"
       xlink:href="#linearGradient50"
       id="linearGradient53"
       x1="88.383476"
       y1="173.54388"
       x2="96.270134"
       y2="173.54388"
       gradientUnits="userSpaceOnUse" />
  </defs>
  <g
     inkscape:groupmode="layer"
     id="layer3"
     inkscape:label="Layer 2"
     transform="translate(-34.880747,-124.88335)" />
  <g
     inkscape:label="Layer 1"
     inkscape:groupmode="layer"
     id="layer1"
     transform="translate(-34.880747,-124.88335)">
    <g
       id="g68"
       transform="matrix(0.16643822,0,0,0.16509602,10.24789,84.13837)"
       style="mix-blend-mode:darken;fill:url(#linearGradient73);fill-opacity:1;fill-rule:evenodd"
       inkscape:export-filename="..\Tech Sreni\new ts 2d.png"
       inkscape:export-xdpi="96"
       inkscape:export-ydpi="96">
      <path
         d="m 751.29977,489.00698 -0.33463,-0.12552 -120.62871,120.82993 17.87755,21.77456 -41.93142,-25.81635 12.71535,-11.16529 122.93206,-121.81579 c -8.77488,-1.17158 -16.65741,-2.84526 -23.64758,-5.02106 -6.9158,-2.25948 -13.12515,-4.8537 -18.62805,-7.78266 -6.0978,6.19265 -19.29732,17.07163 -19.29732,17.07163 l 21.92577,23.6845 -50.92752,-26.19503 c 5.13108,-3.7658 10.55961,-7.69898 16.2856,-11.79951 5.72599,-4.18422 11.22889,-8.66134 16.50869,-13.43134 -3.8669,-3.43107 -7.13889,-7.0295 -9.81598,-10.7953 -2.67708,-3.84948 -4.83362,-7.65712 -6.46962,-11.42292 -1.636,-3.84948 -2.82581,-7.65712 -3.56945,-11.42292 -0.66927,-3.7658 -1.0039,-7.32239 -1.0039,-10.66977 0,-5.10475 0.74363,-9.91659 2.2309,-14.43555 1.48727,-4.51897 3.56945,-8.45213 6.24653,-11.79951 2.67709,-3.43106 5.87472,-6.15081 9.59289,-8.15923 3.79254,-2.00843 7.99407,-3.01264 12.60461,-3.01264 4.6849,0 8.99798,1.04606 12.93924,3.13816 3.94127,2.00843 7.36198,4.81186 10.26216,8.4103 2.90017,3.59842 5.13108,7.78264 6.69271,12.55265 1.636,4.77002 2.454,9.87476 2.454,15.31426 0,7.19686 -1.37573,14.05897 -4.12717,20.58636 -2.67709,6.52739 -6.24653,12.76188 -10.70834,18.70347 6.46962,3.18 13.19951,5.64869 20.18968,7.40606 6.99016,1.67369 13.53414,2.67791 19.63195,3.01264 v -87.61758 h 41.71791 v 18.45242 h -23.4245 v 154.30098 l 32.5,16.4068 -50.79341,-2 z m -42.9449,-81.84336 c 0,-2.6779 -0.29745,-5.27212 -0.89236,-7.78265 -0.59491,-2.51053 -1.48727,-4.72816 -2.67709,-6.65291 -1.11545,-1.92474 -2.52835,-3.43106 -4.23871,-4.51895 -1.71036,-1.17158 -3.64381,-1.75738 -5.80035,-1.75738 -2.37964,0 -4.42463,0.66947 -6.13499,2.00843 -1.71036,1.25526 -3.12327,2.88711 -4.23872,4.89554 -1.04109,2.00842 -1.8219,4.26791 -2.34245,6.77844 -0.52054,2.51053 -0.78081,4.97922 -0.78081,7.40606 0,5.85791 1.37572,11.21372 4.12717,16.06741 2.75145,4.77002 6.39526,9.03792 10.93143,12.80372 3.64381,-4.51896 6.54398,-9.20528 8.70052,-14.05898 2.23091,-4.85369 3.34636,-9.9166 3.34636,-15.18873 z m 59.13222,-38.15121 h -16.17406 l -9.60614,-17.95919 c -4.31308,-9.1216 -8.21717,-16.3603 -11.71225,-21.7161 -3.56945,-5.3558 -6.9158,-9.4145 -10.03906,-12.17608 -3.19763,-2.84527 -6.32089,-4.64449 -9.3698,-5.39765 -3.0489,-0.83684 -6.24653,-1.25526 -9.59289,-1.25526 h -13.63977 l -8,-20.33532 h 20.41277 c 4.31308,0 8.21717,0.41842 11.71225,1.25527 3.49508,0.75316 6.84144,2.17579 10.03907,4.2679 3.12326,2.00843 6.20935,4.8537 9.25825,8.53581 2.97453,3.59843 6.17217,8.28476 9.59288,14.05899 3.42072,5.69054 7.17608,12.55266 11.26607,20.58636 5.6636,10.85052 10.40352,20.26939 15.85268,30.13527 z m 194.85621,18.44354 h -23.4245 v 152.30098 l 28,17.9068 -46.29341,-1.5 V 387.45595 h -27.66321 v 77.70098 c 0,8.70317 -1.07827,16.19293 -3.23481,22.46926 -2.08218,6.27633 -4.98236,11.46477 -8.70053,15.5653 -3.64381,4.10053 -7.91971,7.15502 -12.8277,9.16344 -4.90798,1.92475 -10.18779,2.88711 -15.83941,2.88711 -6.3209,0 -12.04689,-1.12974 -17.17797,-3.38922 -5.05671,-2.25947 -9.36979,-5.60684 -12.93924,-10.04212 -3.56945,-4.43527 -6.32089,-9.9166 -8.25434,-16.44399 -1.93346,-6.61107 -2.90018,-14.18451 -2.90018,-22.72032 V 387.45595 H 785.20951 V 369.00353 H 962.3433 Z m -132.7388,0 v 79.08177 c 0,3.84947 0.37182,7.57344 1.11546,11.17187 0.818,3.51475 2.08217,6.6529 3.79253,9.41449 1.78472,2.76158 4.08999,4.97922 6.91581,6.65291 2.90017,1.67369 6.43243,2.51053 10.59679,2.51053 4.23872,0 7.77098,-0.83684 10.59679,-2.51053 2.90018,-1.67369 5.24264,-3.89133 7.02736,-6.65291 1.78472,-2.76159 3.0489,-5.89974 3.79253,-9.41449 0.818,-3.59843 1.227,-7.3224 1.227,-11.17187 v -79.08177 z m 192.0808,0 h -23.42444 l -1.17221,222.30364 -0.0893,15.39398 -0.23853,19.51016 h -112.1634 -19.13 l -0.13371,-59.88557 18.9071,41.28756 95.55427,-0.40269 0.17234,-238.20708 h -25.43231 v -18.45242 h 27.21703 c -1.33854,-8.53581 -3.0489,-15.81635 -5.13108,-21.84163 -2.08218,-6.10896 -4.35026,-11.17187 -6.80426,-15.18872 -2.45399,-4.10054 -5.01953,-7.32239 -7.69661,-9.66555 -2.67709,-2.34317 -5.24264,-4.10054 -7.69663,-5.27212 -2.52835,-1.17158 -4.8708,-1.92474 -7.02734,-2.25948 -2.23091,-0.33474 -4.05281,-0.50211 -5.46572,-0.50211 -4.61054,0 -8.29153,0.83685 -11.04297,2.51054 -2.82581,1.59 -4.98236,3.51474 -6.46963,5.77422 -1.48727,2.25948 -2.45399,4.64449 -2.90017,7.15502 -0.52054,2.42685 -0.78081,4.51896 -0.78081,6.27633 0,0.66948 0.11154,2.05027 0.33463,4.14238 0.14873,2.00842 0.74363,4.5608 1.78472,7.65712 0.96672,3.09633 2.49117,6.56923 4.57335,10.41871 2.08218,3.84949 4.17649,6.56249 7.96903,10.83039 h -18.96269 c -4.68489,-6.02528 -7.33693,-10.91407 -9.6422,-17.35777 -2.37963,-6.52739 -3.56944,-12.84556 -3.56944,-18.95452 0,-5.10475 0.81799,-9.95845 2.45399,-14.56109 1.63599,-4.60264 4.08999,-8.57765 7.36198,-11.92503 3.272,-3.43106 7.36199,-6.1508 12.26998,-8.15923 4.90798,-2.00843 10.59679,-3.01264 17.06641,-3.01264 8.92362,0 16.62024,1.96658 23.08986,5.89975 6.46962,3.84949 11.89816,9.1216 16.2856,15.81636 4.46181,6.69475 7.95689,14.56108 10.48525,23.599 2.60272,8.95423 4.42463,18.49426 5.46572,28.62007 h 23.98219 z"
         id="text42"
         style="font-size:242.339px;fill:url(#linearGradient1);fill-opacity:1;fill-rule:evenodd;stroke-width:673.666;paint-order:stroke fill markers"
         aria-label="श्रेणी"
         sodipodi:nodetypes="cccccccccccccccccssccscscsccccccccccccssccsccsscccscccccccccscccccccccccccscccscscsccccccscccscscsccccccccccccccccccsccscscsccscccsscsscccccc" />
      <path
         d="m 582.51565,247.7788 -22.20252,-26.73582 -295.00495,0.37876 -2.381,296.16929 52.04611,8.88498 -74.76619,0.57557 0.0695,-8.65089 2.38751,-296.97895 h -60.84148 v -20.12802 l 377.62155,-0.38376 22.85429,-0.0232 z M 429.0771,400.2911 h -94.12138 c 0,7.85297 1.18176,14.7148 3.54527,20.58547 2.36352,5.79443 5.60383,10.55959 9.72092,14.29547 3.96461,3.65965 8.65353,6.40438 14.06675,8.2342 5.48946,1.82982 11.51262,2.74473 18.06947,2.74473 8.69165,0 17.42141,-1.71546 26.1893,-5.14637 8.84413,-3.50716 15.13414,-6.93807 18.87003,-10.29274 h 1.14363 v 23.44457 c -7.24303,3.0497 -14.63856,5.60382 -22.18657,7.66237 -7.54801,2.05855 -15.47723,3.08782 -23.78766,3.08782 -21.19542,0 -37.74005,-5.71819 -49.63388,-17.15456 -11.89383,-11.51262 -17.84074,-27.82852 -17.84074,-48.94769 0,-20.89045 5.68007,-37.4732 17.0402,-49.74824 11.43637,-12.27505 26.45615,-18.41257 45.05932,-18.41257 17.23081,0 30.497,5.03201 39.79859,15.09602 9.37783,10.06401 14.06675,24.35948 14.06675,42.88641 z m -20.92857,-16.46839 c -0.0763,-11.28389 -2.93534,-20.01365 -8.57729,-26.1893 -5.5657,-6.17564 -14.06674,-9.26346 -25.50312,-9.26346 -11.51261,0 -20.69983,3.39279 -27.56166,10.17837 -6.78559,6.78559 -10.63583,15.21038 -11.55074,25.27439 z m 147.9867,70.10499 c -7.1668,3.43091 -13.99051,6.0994 -20.47112,8.00547 -6.40437,1.90606 -13.22807,2.85909 -20.47111,2.85909 -9.22535,0 -17.68827,-1.33424 -25.38876,-4.00273 -7.70049,-2.74473 -14.29547,-6.86183 -19.78493,-12.35129 -5.5657,-5.48946 -9.8734,-12.42753 -12.92311,-20.8142 -3.0497,-8.38668 -4.57455,-18.18384 -4.57455,-29.39149 0,-20.89045 5.71819,-37.28259 17.15457,-49.17642 11.51262,-11.89383 26.68488,-17.84075 45.51678,-17.84075 7.31928,0 14.48608,1.02927 21.50039,3.08782 7.09055,2.05855 13.57117,4.57455 19.44184,7.54801 v 23.90203 h -1.14364 c -6.55685,-5.10825 -13.34244,-9.03474 -20.35675,-11.77947 -6.93807,-2.74473 -13.72365,-4.1171 -20.35675,-4.1171 -12.1988,0 -21.84348,4.1171 -28.93404,12.35129 -7.01431,8.15795 -10.52146,20.16614 -10.52146,36.02459 0,15.40099 3.43091,27.2567 10.29274,35.56713 6.93807,8.23419 16.65899,12.35129 29.16276,12.35129 4.34582,0 8.76789,-0.57182 13.2662,-1.71546 4.49831,-1.14364 8.53916,-2.63037 12.12255,-4.46019 3.12595,-1.60109 6.06128,-3.27843 8.80601,-5.032 2.74473,-1.82982 4.91765,-3.39279 6.51874,-4.68892 h 1.14364 z m 133.76318,70.88543 -46.37815,0.2035 24.92202,-9.97432 0.57,-125.8445 c 0.0266,-5.87065 -0.34309,-11.36013 -1.02927,-16.46838 -0.68619,-5.18449 -1.94419,-9.22535 -3.77401,-12.12256 -1.90606,-3.20219 -4.65079,-5.5657 -8.23419,-7.09055 -3.5834,-1.60109 -8.23419,-2.40164 -13.95238,-2.40164 -5.87067,0 -12.0082,1.44861 -18.41257,4.34582 -6.40437,2.89721 -12.54189,6.59497 -18.41256,11.09328 v 95.37939 H 583.69691 V 292.39 283.98314 l 44.08666,-0.57557 -22.58627,8.98243 v 55.97995 c 6.70934,-5.56571 13.64741,-9.91153 20.8142,-13.03747 7.1668,-3.12595 14.5242,-4.68892 22.07221,-4.68892 13.79989,0 24.32136,4.15522 31.5644,12.46565 7.24304,8.31043 10.86456,20.28051 10.86456,35.91023 l -0.57311,136.027 z"
         id="text46"
         style="font-size:234.217px;fill:url(#linearGradient2);fill-opacity:1;fill-rule:evenodd;stroke-width:651.082;paint-order:stroke fill markers"
         transform="scale(0.81398011,1.2285312)"
         aria-label="Tech"
         sodipodi:nodetypes="ccccccccccccccccccsccccsscscscscccscccccsccsscscccccscscssccccccccscccssccccccccsssscc" />
    </g>
  </g>
</svg>
