<?xml version="1.0" encoding="UTF-8"?>
<!DOCTYPE svg PUBLIC "-//W3C//DTD SVG 1.1//EN" "http://www.w3.org/Graphics/SVG/1.1/DTD/svg11.dtd">
<!-- Creator: CorelDRAW X7 -->
<svg xmlns="http://www.w3.org/2000/svg" xml:space="preserve" width="297mm" height="210mm" version="1.1" style="shape-rendering:geometricPrecision; text-rendering:geometricPrecision; image-rendering:optimizeQuality; fill-rule:evenodd; clip-rule:evenodd"
viewBox="0 0 29700 21000"
 xmlns:xlink="http://www.w3.org/1999/xlink">
 <defs>
  <style type="text/css">
   <![CDATA[
    .fil0 {fill:#434242}
   ]]>
  </style>
 </defs>
 <g id="Layer_x0020_1">
  <metadata id="CorelCorpID_0Corel-Layer"/>
  <path class="fil0" d="M7330 2573l13816 0 0 2277 -755 -1308c0,0 -10243,-77 -10243,0 0,77 -2,15401 -2,15401 0,0 2027,388 2019,415 -7,28 -2839,-42 -2839,0 0,43 122,-15806 122,-15806l-2146 0 28 -979z"/>
  <path class="fil0" d="M11826 17818l5723 -5617c0,0 -1227,-177 -1762,-535l-802 704 869 982 -2155 -1096 1379 -1067c0,0 -877,-713 -826,-1835 50,-1121 624,-1526 1307,-1577 683,-50 1130,683 1130,683 0,0 447,819 59,1873 0,0 -261,531 -422,683 0,0 76,371 1637,481l8 -3627 -945 -1771c0,0 -455,-709 -936,-692 -481,17 -818,17 -818,17l-337 -911 1155 -8c0,0 650,-43 1240,902 591,945 1299,2379 1299,2379l793 16 0 802 -658 0 0 6478 1392 708 -2193 -34 0 -2893 -5082 5061 696 932 -1751 -1038zm3734 -9239c0,0 573,-26 560,894 -12,919 -497,1181 -497,1181 0,0 -641,-401 -641,-1261 0,-861 578,-814 578,-814z"/>
 </g>
</svg>
