<?xml version="1.0" encoding="UTF-8"?>
<svg version="1.1" xmlns="http://www.w3.org/2000/svg" width="2476" height="2480">
<path d="M0 0 C3.90667813 0.00819689 7.8133253 -0.00139956 11.72000009 -0.00851054 C18.56585236 -0.01860585 25.41163271 -0.01775609 32.2574864 -0.00945991 C42.50596913 0.00290327 52.75439438 -0.00224486 63.00287853 -0.01060784 C80.47612773 -0.02436126 97.94935065 -0.02398061 115.42260217 -0.0157652 C133.11716859 -0.00749655 150.81171773 -0.00578235 168.50628519 -0.01197721 C170.18589957 -0.01255849 170.18589957 -0.01255849 171.89944556 -0.01315151 C176.46036814 -0.01475141 181.02129071 -0.01639755 185.58221326 -0.01810233 C228.01441084 -0.03395144 270.44659685 -0.0350548 312.8787961 -0.02665998 C314.13489065 -0.02641159 315.3909852 -0.02616321 316.68514322 -0.02590729 C317.94325828 -0.0256585 319.20137333 -0.02540972 320.49761308 -0.02515339 C358.84744363 -0.01757985 397.1972694 -0.01563152 435.54710054 -0.01922132 C438.11651205 -0.01945376 440.68592355 -0.01968523 443.25533506 -0.01991573 C453.58108217 -0.02084715 463.90682928 -0.02180316 474.23257638 -0.02279502 C503.09619916 -0.02554586 531.95982195 -0.0272578 560.82344484 -0.02815343 C562.13775781 -0.02819437 563.45207078 -0.02823531 564.80621142 -0.02827749 C606.67752163 -0.02950507 648.54883011 -0.02612872 690.42013979 -0.0196047 C691.09893317 -0.01949934 691.77772655 -0.01939399 692.47708943 -0.01928544 C715.21171813 -0.01575663 737.94634678 -0.01198831 760.68097543 -0.00819555 C829.42561124 0.00326517 898.1702409 0.00954654 1020.94107591 -0.00854154 C1043.67003367 -0.01233131 1066.39899144 -0.01607696 1089.12794924 -0.0196047 C1089.80655314 -0.01971043 1090.48515705 -0.01981616 1091.1843247 -0.0199251 C1133.69776479 -0.02654348 1176.21120357 -0.02947761 1218.72464418 -0.02815343 C1220.69466065 -0.0280923 1220.69466065 -0.0280923 1222.70447544 -0.02802994 C1251.53618598 -0.02709245 1280.3678964 -0.02519142 1309.19960682 -0.02242192 C1319.51604851 -0.02143453 1329.83249021 -0.02049528 1340.1489319 -0.01956979 C1342.71532593 -0.01933762 1345.28171997 -0.01910143 1347.848114 -0.0188612 C1386.18639328 -0.01528236 1424.52466718 -0.018326 1462.8629458 -0.02590729 C1464.11904035 -0.02615568 1465.3751349 -0.02640407 1466.66929292 -0.02665998 C1467.92306395 -0.02690803 1469.17683498 -0.02715607 1470.46859907 -0.02741164 C1512.77994123 -0.035691 1555.09126952 -0.03263292 1597.4026097 -0.01681775 C1601.94900773 -0.01516073 1606.49540578 -0.01355062 1611.04180383 -0.01197721 C1612.15754527 -0.01158659 1613.27328671 -0.01119597 1614.42283849 -0.01079351 C1632.06732503 -0.0048836 1649.71179428 -0.00898831 1667.35627926 -0.01728423 C1684.7190275 -0.0252333 1702.08174667 -0.02241032 1719.44449124 -0.00824196 C1729.61413334 -0.00025914 1739.78369558 -0.00036263 1749.95333379 -0.01268675 C1756.72183423 -0.02006047 1763.49027297 -0.01640629 1770.25876602 -0.00408619 C1774.08621328 0.00258162 1777.9135025 0.00487184 1781.74094221 -0.00653574 C1863.41026476 -0.23254082 1939.89162147 27.06314333 2003.27404451 78.38222598 C2003.79837068 78.80068789 2004.32269685 79.21914981 2004.8629117 79.65029238 C2013.63382038 86.68843858 2021.62213917 94.5221074 2029.58654451 102.44472598 C2030.09860445 102.95151888 2030.61066438 103.45831179 2031.13824129 103.98046206 C2037.98942163 110.7771066 2044.26762662 117.81345817 2050.27404451 125.38222598 C2051.25047593 126.55616874 2052.23037013 127.72725022 2053.21545076 128.89394473 C2091.7978102 175.2997886 2115.74992482 233.10406351 2125.27404451 292.38222598 C2125.44791312 293.37834868 2125.62178173 294.37447139 2125.80091909 295.40077964 C2127.89448547 309.22250627 2127.55829181 323.14792489 2127.53400425 337.09162569 C2127.52936316 341.04470196 2127.53643036 344.99776136 2127.54193788 348.95083414 C2127.55001807 355.89561332 2127.5507094 362.84036254 2127.546526 369.7851447 C2127.54029761 380.18192363 2127.54561252 390.57867518 2127.55312341 400.97545212 C2127.56558325 418.69712025 2127.56853676 436.41877861 2127.56628847 454.14045046 C2127.56403899 472.09764512 2127.56610972 490.05483148 2127.5734334 508.01202487 C2127.5738927 509.14660021 2127.57435201 510.28117556 2127.57482523 511.45013198 C2127.57670853 516.07117287 2127.57861991 520.69221374 2127.58056761 525.3132546 C2127.60085366 573.51369177 2127.60697949 621.71412428 2127.60815184 669.91456522 C2127.60828133 675.10246794 2127.60841721 680.29037066 2127.60855865 685.47827338 C2127.60859266 686.76567542 2127.60862667 688.05307745 2127.60866171 689.37949167 C2127.60947873 717.9119309 2127.61385891 746.44436924 2127.61887034 774.97680799 C2127.62092707 786.72663897 2127.62290713 798.47646996 2127.62490284 810.22630094 C2127.62523461 812.17370879 2127.62523461 812.17370879 2127.62557308 814.1604582 C2127.63077161 844.73859594 2127.63523733 875.31673375 2127.63893747 905.8948717 C2127.63901821 906.56110974 2127.63909895 907.22734778 2127.63918214 907.91377485 C2127.64430783 950.36428179 2127.6461072 992.81478819 2127.64558147 1035.26529542 C2127.64555596 1037.35244735 2127.64553204 1039.43959928 2127.64550865 1041.52675121 C2127.64534397 1056.18940674 2127.64513856 1070.85206227 2127.64492289 1085.5147178 C2127.64486135 1089.71870156 2127.64480122 1093.92268533 2127.64474126 1098.1266691 C2127.64469107 1101.63333803 2127.6446395 1105.14000697 2127.64458504 1108.6466759 C2127.64356235 1174.8686683 2127.64639421 1241.09065582 2127.66527986 1307.3126459 C2127.66547858 1308.00969435 2127.6656773 1308.70674281 2127.66588204 1309.42491395 C2127.67210472 1331.20397901 2127.67883771 1352.98304391 2127.6856656 1374.76210879 C2127.69266869 1397.10983239 2127.69960975 1419.457556 2127.7061944 1441.80527972 C2127.70649898 1442.8374896 2127.70649898 1442.8374896 2127.70680971 1443.89055221 C2127.71951273 1487.00305554 2127.72735268 1530.11555748 2127.72991037 1573.22806262 C2127.72995043 1573.89415943 2127.72999048 1574.56025624 2127.73003175 1575.2465378 C2127.73182187 1605.15949258 2127.73239452 1635.07244731 2127.73181174 1664.98540215 C2127.73161878 1675.44845354 2127.73151469 1685.91150493 2127.73145429 1696.37455632 C2127.73143846 1698.9774693 2127.73141805 1701.58038227 2127.73139304 1704.18329525 C2127.73104053 1745.64209017 2127.7424309 1787.10087141 2127.75970067 1828.55966241 C2127.77700889 1870.32307526 2127.78137592 1912.08646918 2127.76817803 1953.84988411 C2127.76635352 1959.62512749 2127.76466694 1965.4003709 2127.763062 1971.17561434 C2127.76258174 1972.87371715 2127.76258174 1972.87371715 2127.76209177 1974.60612507 C2127.75739186 1992.50730585 2127.7660868 2010.40845383 2127.78040437 2028.30962845 C2127.79421262 2045.92635669 2127.79366707 2063.54303662 2127.7780201 2081.15976383 C2127.76928023 2091.47775528 2127.77134545 2101.7956042 2127.78975367 2112.11358374 C2127.8009018 2118.98169732 2127.79732123 2125.8497054 2127.7821881 2132.717811 C2127.77403123 2136.60115957 2127.77170524 2140.48422941 2127.78768948 2144.36756006 C2128.07554303 2219.40311658 2100.78468594 2291.78793752 2054.27404451 2350.38222598 C2053.54701326 2351.30390566 2052.81998201 2352.22558535 2052.07091951 2353.17519473 C2037.74755746 2371.02787441 2021.4063201 2388.39371642 2003.27404451 2402.38222598 C2002.22011728 2403.25604958 2001.16954636 2404.13393127 2000.12170076 2405.01503848 C1953.55889208 2443.84375277 1895.76633202 2467.64120456 1836.27404451 2477.38222598 C1835.32865704 2477.55373533 1834.38326957 2477.72524468 1833.40923399 2477.90195128 C1827.76698381 2478.69461558 1822.07523595 2478.52113349 1816.38982141 2478.51217781 C1815.07964856 2478.51407705 1813.76947571 2478.51597629 1812.41960066 2478.51793309 C1808.77146529 2478.52307633 1805.12335405 2478.52199358 1801.47521663 2478.51991947 C1797.49581885 2478.51875791 1793.51642711 2478.52338866 1789.53703165 2478.5272762 C1782.53183009 2478.53331284 1775.52663488 2478.53561216 1768.52143083 2478.53550306 C1758.03403714 2478.5353526 1747.54665177 2478.54090018 1737.05926046 2478.54754997 C1719.18667304 2478.55870367 1701.31408676 2478.56502748 1683.44149637 2478.56872271 C1665.32249169 2478.57247568 1647.2034896 2478.57834724 1629.08448648 2478.58680056 C1627.94112073 2478.58733166 1626.79775498 2478.58786275 1625.61974178 2478.58840994 C1620.9631362 2478.59057662 1616.30653062 2478.59275325 1611.64992504 2478.59494387 C1555.1724515 2478.6214582 1498.69497658 2478.63701367 1442.21749855 2478.65010676 C1423.90206855 2478.65435627 1405.58663864 2478.6589239 1387.27120876 2478.66369008 C1304.60188485 2478.68515295 1221.93255983 2478.70610223 1101.54142047 2478.72261251 C1093.8156815 2478.72359652 1086.08994254 2478.72460091 1078.36420358 2478.72560819 C1077.66758927 2478.72569897 1076.97097497 2478.72578975 1076.25325114 2478.72588328 C1062.13924295 2478.72772312 1048.02523476 2478.7295834 1033.91122657 2478.7314726 C1030.37320467 2478.73194611 1026.83518278 2478.73241791 1023.29716088 2478.73288551 C956.49487575 2478.74171839 889.69259626 2478.75486524 822.89031648 2478.78383731 C822.18736932 2478.78414197 821.48442216 2478.78444663 820.76017357 2478.78476053 C797.38421661 2478.79490298 774.0082599 2478.80557419 750.63230321 2478.81630062 C729.51043661 2478.82599122 708.38856997 2478.83555766 687.26670313 2478.84469508 C686.57279362 2478.84499545 685.87888411 2478.84529582 685.16394704 2478.84560529 C641.68832859 2478.86439343 598.21271166 2478.87713002 554.73708963 2478.88357829 C554.06534717 2478.88367867 553.39360471 2478.88377905 552.70150642 2478.88388247 C522.53434315 2478.8883831 492.36717994 2478.89144498 462.20001638 2478.89311254 C450.33431283 2478.89378889 438.46860929 2478.89464441 426.60290575 2478.89555071 C425.3042839 2478.89564481 424.00566206 2478.89573891 422.66768804 2478.89583585 C380.85245584 2478.89894681 339.03724803 2478.9174483 297.22202462 2478.94390068 C255.09264493 2478.97046391 212.96329244 2478.98118483 170.83390492 2478.9701647 C165.00741194 2478.96864324 159.18091894 2478.96729779 153.3544259 2478.96605776 C151.6412496 2478.96568317 151.6412496 2478.96568317 149.89346368 2478.96530101 C131.83533041 2478.96181097 113.77725034 2478.97509516 95.71912984 2478.99543549 C77.94638448 2479.01510506 60.17371148 2479.01683392 42.40096272 2478.99970921 C31.99220693 2478.99021298 21.58367438 2478.99423549 11.17494184 2479.01873156 C4.245368 2479.03365745 -2.68404491 2479.03014445 -9.61361103 2479.01220099 C-13.5311667 2479.00255702 -17.44828902 2479.00018552 -21.36581251 2479.0207542 C-50.26400235 2479.1624702 -77.0238547 2474.69468112 -104.72595549 2466.38222598 C-105.63216643 2466.11184512 -106.53837736 2465.84146426 -107.47204924 2465.56289004 C-150.29419967 2452.56671734 -189.08252847 2430.43209863 -223.72595549 2402.38222598 C-224.25028166 2401.96376406 -224.77460783 2401.54530215 -225.31482268 2401.11415957 C-234.08573135 2394.07601338 -242.07405015 2386.24234455 -250.03845549 2378.31972598 C-250.80654539 2377.55953662 -250.80654539 2377.55953662 -251.59015227 2376.78398989 C-258.44133261 2369.98734535 -264.71953759 2362.95099378 -270.72595549 2355.38222598 C-271.70238691 2354.20828322 -272.68228111 2353.03720173 -273.66736174 2351.87050723 C-324.99520297 2290.13473417 -349.34469104 2211.09976123 -349.10818147 2131.6131632 C-349.09998492 2127.70012053 -349.10958091 2123.78710878 -349.11669201 2119.87406944 C-349.12678753 2113.01699604 -349.1259374 2106.15999443 -349.11764138 2099.30291961 C-349.10527842 2089.03763837 -349.11042623 2078.7724145 -349.1187893 2068.50713184 C-349.13254286 2051.00526062 -349.13216201 2033.50341562 -349.12394667 2016.00154208 C-349.11567806 1998.27794964 -349.11396378 1980.55437445 -349.12015868 1962.83078097 C-349.12054619 1961.70920823 -349.12093371 1960.58763548 -349.12133297 1959.43207568 C-349.12293288 1954.86370115 -349.12457901 1950.29532663 -349.1262838 1945.72695212 C-349.14213298 1903.22526033 -349.14323623 1860.72358009 -349.13484144 1818.22188662 C-349.13459306 1816.96373058 -349.13434467 1815.70557454 -349.13408876 1814.40929256 C-349.13383997 1813.14911274 -349.13359118 1811.88893293 -349.13333485 1810.59056585 C-349.12576134 1772.17791715 -349.12381297 1733.76527322 -349.12740279 1695.35262393 C-349.12763522 1692.77901137 -349.12786669 1690.20539881 -349.1280972 1687.63178626 C-349.12902862 1677.28915831 -349.12998462 1666.94653036 -349.13097649 1656.60390241 C-349.13372733 1627.69308607 -349.13543926 1598.78226972 -349.1363349 1569.87145327 C-349.13637584 1568.55499094 -349.13641677 1567.2385286 -349.13645895 1565.88217347 C-349.13768654 1523.94234039 -349.13431018 1482.00250898 -349.12778616 1440.06267642 C-349.12768081 1439.38277141 -349.12757545 1438.7028664 -349.12746691 1438.00235822 C-349.12393809 1415.23049312 -349.12016978 1392.45862807 -349.11637701 1369.68676302 C-349.1049163 1300.82951487 -349.09863493 1231.97227286 -349.11672301 1109.00032952 C-349.12051278 1086.23414488 -349.12425843 1063.46796023 -349.12778616 1040.70177554 C-349.12794476 1039.68220272 -349.12794476 1039.68220272 -349.12810657 1038.64203247 C-349.13472494 996.05902097 -349.13765908 953.47601069 -349.1363349 910.89299868 C-349.13629415 909.57750657 -349.13625339 908.26201445 -349.13621141 906.90665894 C-349.13527391 878.02780791 -349.13337289 849.14895701 -349.13060339 820.27010611 C-349.12961599 809.93679836 -349.12867675 799.60349061 -349.12775126 789.27018285 C-349.12751909 786.6995927 -349.1272829 784.12900255 -349.12704267 781.5584124 C-349.12346381 743.15732605 -349.12650749 704.75624508 -349.13408876 666.3551594 C-349.13433715 665.09700336 -349.13458553 663.83884731 -349.13484144 662.54256533 C-349.13508949 661.28673659 -349.13533754 660.03090785 -349.1355931 658.73702369 C-349.14387244 616.35639432 -349.14081445 573.9757788 -349.12499921 531.59515141 C-349.1233422 527.04132462 -349.12173208 522.48749781 -349.12015868 517.93367098 C-349.11976805 516.81610631 -349.11937743 515.69854164 -349.11897498 514.54711137 C-349.11306503 496.87366746 -349.11716982 479.2002408 -349.12546569 461.52679845 C-349.13341469 444.13562827 -349.13059192 426.74448711 -349.11642343 409.35332059 C-349.1084405 399.16698162 -349.10854429 388.98072237 -349.12086822 378.79438728 C-349.12824178 372.01483012 -349.12458801 365.23533456 -349.11226766 358.45578478 C-349.10559965 354.6220491 -349.10331009 350.7884712 -349.11471721 346.95474304 C-349.34030708 265.29843943 -322.03431796 188.7514089 -270.72595549 125.38222598 C-270.30749358 124.85789981 -269.88903166 124.33357363 -269.45788908 123.79335879 C-262.41974289 115.02245011 -254.58607407 107.03413132 -246.66345549 99.06972598 C-246.15666258 98.55766604 -245.64986967 98.0456061 -245.12771941 97.5180292 C-238.33107486 90.66684886 -231.29472329 84.38864387 -223.72595549 78.38222598 C-222.55201273 77.40579455 -221.38093124 76.42590036 -220.21423674 75.44081973 C-158.49473044 24.12650286 -79.46849224 -0.23685386 0 0 Z " fill="#FEFEFE" transform="translate(348.7259554890916,1.6177740227431059)"/>
<path d="M0 0 C3.56263094 -0.01029702 7.12511604 -0.02766159 10.68768311 -0.05126953 C14.9279773 -0.07884239 19.16805655 -0.09098699 23.40843773 -0.09189606 C24.96366286 -0.09453862 26.51888984 -0.10215224 28.07406044 -0.11544037 C41.9846952 -0.22751801 54.83252981 1.62547352 67.87081909 6.79467773 C68.75068481 7.13837402 69.63055054 7.48207031 70.53707886 7.83618164 C85.41086433 13.80699163 98.93947344 21.45865656 111.62081909 31.23217773 C112.49867065 31.89862305 113.37652222 32.56506836 114.28097534 33.25170898 C128.83305404 44.57511729 142.29223211 57.70321947 153.62081909 72.23217773 C154.10276733 72.84303223 154.58471558 73.45388672 155.08126831 74.08325195 C187.50422287 115.23585212 213.01308454 163.23597212 237.90206909 209.22436523 C240.39617429 213.83143421 242.93899639 218.4097083 245.49581909 222.98217773 C251.37103848 233.51410528 257.06422368 244.14382526 262.76339722 254.77172852 C264.61303604 258.2176776 266.46797333 261.6607293 268.32394409 265.10327148 C275.39340546 278.23372639 282.35218289 291.41290631 289.1713562 304.67480469 C292.55668178 311.25746233 295.97801909 317.81885189 299.43331909 324.36499023 C304.19806863 333.39713216 308.88188785 342.46931122 313.53561401 351.55908203 C314.81725109 354.06212194 316.10076258 356.56419423 317.38449097 359.06616211 C322.18425523 368.4281673 326.94009145 377.81003387 331.62081909 387.23217773 C332.32872086 387.2424852 333.03662262 387.25279266 333.76597595 387.26341248 C340.59936959 387.36340403 347.4327182 387.46611187 354.26603031 387.57151699 C357.77498078 387.62555687 361.28393887 387.6787177 364.79293823 387.72949219 C368.21011136 387.77897666 371.62723324 387.8312609 375.04434013 387.88511848 C376.91478256 387.91397868 378.78526395 387.94028174 380.65574646 387.96641541 C395.31982823 388.20248586 409.95599402 388.75911886 424.62081909 389.23217773 C424.62081909 420.58217773 424.62081909 451.93217773 424.62081909 484.23217773 C399.21081909 484.23217773 373.80081909 484.23217773 347.62081909 484.23217773 C347.62081909 737.01217773 347.62081909 989.79217773 347.62081909 1250.23217773 C349.60081909 1250.89217773 351.58081909 1251.55217773 353.62081909 1252.23217773 C355.04745161 1252.86489691 356.46063208 1253.52915251 357.85592651 1254.22827148 C358.63501877 1254.6162793 359.41411102 1255.00428711 360.21681213 1255.40405273 C361.04493912 1255.82170898 361.8730661 1256.23936523 362.72628784 1256.66967773 C363.60497025 1257.10924805 364.48365265 1257.54881836 365.38896179 1258.00170898 C367.25162169 1258.93454693 369.11331107 1259.86932497 370.97409058 1260.8059082 C373.75189701 1262.20378444 376.5327251 1263.59548115 379.31417847 1264.98608398 C388.81146065 1269.74441154 398.25257967 1274.59363888 407.63893127 1279.5670166 C415.43047184 1283.68403748 423.30994102 1287.6171973 431.20407104 1291.53295898 C452.63151226 1302.16550684 452.63151226 1302.16550684 462.12081909 1307.23217773 C468.41890513 1310.58378607 474.7625395 1313.82452906 481.15988159 1316.98217773 C482.91192541 1317.85178669 484.66387645 1318.72158262 486.41574097 1319.59155273 C489.93705343 1321.33818047 493.46244027 1323.07625158 496.98995972 1324.81030273 C498.61962764 1325.61737105 500.24918958 1326.42465341 501.87863159 1327.23217773 C502.6443045 1327.60568359 503.40997742 1327.97918945 504.19885254 1328.36401367 C509.50740359 1331.00534673 509.50740359 1331.00534673 510.62081909 1333.23217773 C493.67451114 1333.36716671 476.74992773 1333.18725153 459.80831909 1332.79467773 C438.30855495 1332.29868038 416.81309247 1332.03361966 395.30831909 1331.79467773 C347.74209238 1331.18223705 300.18128415 1330.19299521 252.62081909 1329.23217773 C252.62081909 1216.70217773 252.62081909 1104.17217773 252.62081909 988.23217773 C246.24168719 993.77955043 246.24168719 993.77955043 240.16049194 999.57225037 C239.36921654 1000.36215142 238.57794113 1001.15205248 237.76268768 1001.96588993 C236.91987495 1002.81229762 236.07706223 1003.65870531 235.20870972 1004.53076172 C234.29280312 1005.44651946 233.37689651 1006.3622772 232.43323517 1007.30578518 C229.91055576 1009.82817113 227.39098626 1012.35364306 224.8719368 1014.87965345 C222.14708774 1017.61090998 219.41930359 1020.33923242 216.69186401 1023.06790161 C211.97154075 1027.79110434 207.25299543 1032.51607714 202.53561401 1037.24221802 C195.70696455 1044.08345334 188.87504975 1050.92142043 182.04225254 1057.75851285 C170.94428675 1068.86353787 159.84819086 1079.97042913 148.75363159 1091.07885742 C148.09035638 1091.74296045 147.42708117 1092.40706347 146.7437067 1093.09129083 C142.03602761 1097.80486997 137.32841555 1102.51851607 132.62081909 1107.23217773 C127.24326117 1112.61666403 121.86567292 1118.00112003 116.48800659 1123.38549805 C115.4943136 1124.38043323 115.4943136 1124.38043323 114.480546 1125.39546812 C103.42599471 1136.46371583 92.36947179 1147.52999199 81.31154633 1158.59486866 C74.49772263 1165.41316668 67.68568014 1172.23323502 60.87594414 1179.05561566 C56.20917602 1183.73082415 51.54062871 1188.40425095 46.8706913 1193.07629371 C44.17879848 1195.76952825 41.48773544 1198.46357848 38.79888916 1201.15985489 C35.87962072 1204.08715946 32.95645529 1207.01054207 30.03292847 1209.93359375 C28.76870937 1211.20320529 28.76870937 1211.20320529 27.4789505 1212.49846554 C23.94910267 1216.02218245 20.40599949 1219.47251958 16.62556458 1222.72743225 C11.90159551 1226.79545028 7.52987452 1231.19101301 3.13278198 1235.60668945 C2.20870828 1236.5306143 1.28463457 1237.45453915 0.33255863 1238.40646172 C-2.21292389 1240.95165076 -4.75529634 1243.49992617 -7.29714918 1246.04873943 C-10.04653864 1248.80453579 -12.79886263 1251.5573986 -15.55084229 1254.31060791 C-20.31372732 1259.07637253 -25.0748344 1263.84390731 -29.83477783 1268.61260986 C-36.72496578 1275.51538307 -43.61841855 1282.41488859 -50.51275384 1289.31351924 C-61.71054815 1300.51837292 -72.90647259 1311.72509285 -84.1008606 1322.93334961 C-84.77011704 1323.60343386 -85.43937348 1324.27351812 -86.12891042 1324.96390796 C-90.87905047 1329.71994806 -95.62912349 1334.47605511 -100.37918091 1339.23217773 C-105.80524143 1344.66516663 -111.23133229 1350.09812523 -116.65750122 1355.53100586 C-117.32593721 1356.20026997 -117.9943732 1356.86953409 -118.68306482 1357.55907893 C-129.83705735 1368.7267676 -140.99302128 1379.89248493 -152.15038776 1391.05680275 C-159.02563029 1397.93651977 -165.89909155 1404.81800724 -172.77024674 1411.70180655 C-177.47906463 1416.4190644 -182.18966136 1421.13454094 -186.90164828 1425.84863329 C-189.61784423 1428.56617105 -192.33321022 1431.28452479 -195.04636002 1434.00510406 C-197.99190329 1436.95868247 -200.94134265 1439.90834005 -203.8911438 1442.85766602 C-204.74173842 1443.7118556 -205.59233305 1444.56604519 -206.46870327 1445.44611931 C-210.71254287 1449.68265221 -215.03355425 1453.74700617 -219.57855511 1457.65822899 C-222.19343539 1459.9439274 -224.63160743 1462.36187484 -227.08670044 1464.81944275 C-227.60397988 1465.33586777 -228.12125933 1465.85229279 -228.65421391 1466.38436705 C-230.35918243 1468.08770952 -232.06059004 1469.79456188 -233.76199341 1471.50146484 C-234.99446984 1472.73422379 -236.22716739 1473.9667617 -237.46006775 1475.19909668 C-240.78611028 1478.52485377 -244.10907311 1481.8536723 -247.43146896 1485.18307185 C-250.91166915 1488.66954782 -254.39472502 1492.15316858 -257.87747192 1495.63710022 C-264.46304363 1502.22577282 -271.04606331 1508.81698908 -277.62815762 1515.4091354 C-285.12561132 1522.91778889 -292.62592436 1530.42358346 -300.12647247 1537.92914569 C-315.54721342 1553.3603229 -330.96438109 1568.79506586 -346.37918091 1584.23217773 C-345.09352955 1587.56050658 -343.84986301 1590.20237645 -341.61355591 1592.98999023 C-341.06062866 1593.68785645 -340.50770142 1594.38572266 -339.9380188 1595.10473633 C-339.04264404 1596.21969482 -339.04264404 1596.21969482 -338.12918091 1597.35717773 C-333.11885624 1603.69439335 -328.21129058 1610.08671591 -323.44168091 1616.60717773 C-318.62880639 1623.18062931 -313.77741747 1629.72204728 -308.87918091 1636.23217773 C-303.44967575 1643.45031622 -298.07803587 1650.70807341 -292.73880005 1657.99316406 C-287.52575055 1665.08270501 -282.18452288 1672.07227743 -276.79544067 1679.02880859 C-273.01332051 1683.94580525 -269.57498239 1688.91402057 -266.37918091 1694.23217773 C-271.19460066 1692.52532598 -275.43006453 1689.99593009 -279.81668091 1687.41967773 C-280.64071411 1686.93901855 -281.46474731 1686.45835938 -282.31375122 1685.96313477 C-285.00499003 1684.39081048 -287.69257076 1682.81239686 -290.37918091 1681.23217773 C-291.30166626 1680.68996582 -292.22415161 1680.14775391 -293.17459106 1679.58911133 C-302.68997387 1673.99134238 -312.18621466 1668.36263709 -321.64480591 1662.66943359 C-327.88723648 1658.91674398 -334.16072159 1655.21692943 -340.43313599 1651.51464844 C-347.81544629 1647.15716909 -355.19242283 1642.79076974 -362.56668091 1638.41967773 C-363.69880005 1637.74864014 -364.83091919 1637.07760254 -365.99734497 1636.38623047 C-368.30613235 1635.01771158 -370.6148817 1633.64912854 -372.9236145 1632.28051758 C-378.57508174 1628.93041589 -384.22717821 1625.58137594 -389.87918091 1622.23217773 C-392.12918355 1620.89884886 -394.37918355 1619.56551553 -396.62918091 1618.23217773 C-397.74293091 1617.57217773 -398.85668091 1616.91217773 -400.00418091 1616.23217773 C-405.06668091 1613.23217773 -405.06668091 1613.23217773 -410.12918091 1610.23217773 C-411.24389771 1609.57161377 -412.3586145 1608.9110498 -413.5071106 1608.23046875 C-415.74737673 1606.90288561 -417.98761132 1605.57524927 -420.22781372 1604.24755859 C-425.40104629 1601.18164645 -430.57455493 1598.11620398 -435.74925232 1595.05276489 C-447.97925197 1587.81251561 -460.20823584 1580.57144109 -472.37918091 1573.23217773 C-471.04338443 1570.25581568 -469.58683487 1568.19265916 -467.25418091 1565.91967773 C-466.71535278 1565.38729492 -466.17652466 1564.85491211 -465.62136841 1564.30639648 C-464.36008832 1563.13960254 -463.08802203 1561.98347385 -461.78155518 1560.86750793 C-456.34847367 1556.22422759 -451.2885264 1551.26134724 -446.2588501 1546.18701172 C-444.77986182 1544.69503531 -443.29757589 1543.2064022 -441.81448364 1541.71850586 C-438.66652842 1538.55923008 -435.52254821 1535.39601751 -432.37918091 1532.23217773 C-428.73103308 1528.56026985 -425.08118746 1524.89008216 -421.42706299 1521.22412109 C-419.98053022 1519.77119866 -418.53708924 1518.31525493 -417.09378052 1516.85913086 C-412.66645123 1512.41545279 -408.18804009 1508.14010516 -403.42849731 1504.05664062 C-399.11330624 1500.21491762 -395.10080885 1496.05305767 -391.03543091 1491.95092773 C-390.05741672 1490.96849396 -389.0790984 1489.98636286 -388.10049438 1489.0045166 C-385.02386696 1485.91657203 -381.95121655 1482.8246896 -378.87918091 1479.73217773 C-375.31364187 1476.1428731 -371.74640163 1472.55529265 -368.17488098 1468.97193909 C-366.76159461 1467.55226616 -365.3514098 1466.12950775 -363.9413147 1464.70666504 C-360.18396712 1460.93512508 -356.43447307 1457.21337031 -352.39285278 1453.74584961 C-347.78464408 1449.79012551 -343.53237809 1445.49848498 -339.2588501 1441.18701172 C-337.77986182 1439.69503531 -336.29757589 1438.2064022 -334.81448364 1436.71850586 C-331.66652842 1433.55923008 -328.52254821 1430.39601751 -325.37918091 1427.23217773 C-321.73103308 1423.56026985 -318.08118746 1419.89008216 -314.42706299 1416.22412109 C-312.98053022 1414.77119866 -311.53708924 1413.31525493 -310.09378052 1411.85913086 C-305.67078665 1407.41980422 -301.19670522 1403.14953193 -296.44192505 1399.07006836 C-292.55538396 1395.60718739 -288.92222887 1391.88291816 -285.2588501 1388.18701172 C-283.77986182 1386.69503531 -282.29757589 1385.2064022 -280.81448364 1383.71850586 C-277.66652842 1380.55923008 -274.52254821 1377.39601751 -271.37918091 1374.23217773 C-267.73103308 1370.56026985 -264.08118746 1366.89008216 -260.42706299 1363.22412109 C-258.98053022 1361.77119866 -257.53708924 1360.31525493 -256.09378052 1358.85913086 C-251.66645123 1354.41545279 -247.18804009 1350.14010516 -242.42849731 1346.05664062 C-238.11330624 1342.21491762 -234.10080885 1338.05305767 -230.03543091 1333.95092773 C-229.05741672 1332.96849396 -228.0790984 1331.98636286 -227.10049438 1331.0045166 C-224.02386696 1327.91657203 -220.95121655 1324.8246896 -217.87918091 1321.73217773 C-214.31364187 1318.1428731 -210.74640163 1314.55529265 -207.17488098 1310.97193909 C-205.76159461 1309.55226616 -204.3514098 1308.12950775 -202.9413147 1306.70666504 C-199.18396712 1302.93512508 -195.43447307 1299.21337031 -191.39285278 1295.74584961 C-186.78464408 1291.79012551 -182.53237809 1287.49848498 -178.2588501 1283.18701172 C-176.77986182 1281.69503531 -175.29757589 1280.2064022 -173.81448364 1278.71850586 C-170.66652842 1275.55923008 -167.52254821 1272.39601751 -164.37918091 1269.23217773 C-160.73103308 1265.56026985 -157.08118746 1261.89008216 -153.42706299 1258.22412109 C-151.98053022 1256.77119866 -150.53708924 1255.31525493 -149.09378052 1253.85913086 C-144.66645123 1249.41545279 -140.18804009 1245.14010516 -135.42849731 1241.05664062 C-131.11330624 1237.21491762 -127.10080885 1233.05305767 -123.03543091 1228.95092773 C-122.05741672 1227.96849396 -121.0790984 1226.98636286 -120.10049438 1226.0045166 C-117.02386696 1222.91657203 -113.95121655 1219.8246896 -110.87918091 1216.73217773 C-107.31364187 1213.1428731 -103.74640163 1209.55529265 -100.17488098 1205.97193909 C-98.76159461 1204.55226616 -97.3514098 1203.12950775 -95.9413147 1201.70666504 C-92.18396712 1197.93512508 -88.43447307 1194.21337031 -84.39285278 1190.74584961 C-79.78464408 1186.79012551 -75.53237809 1182.49848498 -71.2588501 1178.18701172 C-69.77986182 1176.69503531 -68.29757589 1175.2064022 -66.81448364 1173.71850586 C-63.66652842 1170.55923008 -60.52254821 1167.39601751 -57.37918091 1164.23217773 C-53.73103308 1160.56026985 -50.08118746 1156.89008216 -46.42706299 1153.22412109 C-44.98053022 1151.77119866 -43.53708924 1150.31525493 -42.09378052 1148.85913086 C-37.66645123 1144.41545279 -33.18804009 1140.14010516 -28.42849731 1136.05664062 C-24.11330624 1132.21491762 -20.10080885 1128.05305767 -16.03543091 1123.95092773 C-15.05741672 1122.96849396 -14.0790984 1121.98636286 -13.10049438 1121.0045166 C-10.02386696 1117.91657203 -6.95121655 1114.8246896 -3.87918091 1111.73217773 C-0.31364187 1108.1428731 3.25359837 1104.55529265 6.82511902 1100.97193909 C8.23840539 1099.55226616 9.6485902 1098.12950775 11.0586853 1096.70666504 C14.81603288 1092.93512508 18.56552693 1089.21337031 22.60714722 1085.74584961 C27.21535592 1081.79012551 31.46762191 1077.49848498 35.7411499 1073.18701172 C37.22013818 1071.69503531 38.70242411 1070.2064022 40.18551636 1068.71850586 C43.33347158 1065.55923008 46.47745179 1062.39601751 49.62081909 1059.23217773 C53.26896692 1055.56026985 56.91881254 1051.89008216 60.57293701 1048.22412109 C62.01946978 1046.77119866 63.46291076 1045.31525493 64.90621948 1043.85913086 C69.33354877 1039.41545279 73.81195991 1035.14010516 78.57150269 1031.05664062 C82.88669376 1027.21491762 86.89919115 1023.05305767 90.96456909 1018.95092773 C91.94258328 1017.96849396 92.9209016 1016.98636286 93.89950562 1016.0045166 C96.97613304 1012.91657203 100.04878345 1009.8246896 103.12081909 1006.73217773 C106.68635813 1003.1428731 110.25359837 999.55529265 113.82511902 995.97193909 C115.23840539 994.55226616 116.6485902 993.12950775 118.0586853 991.70666504 C121.81603288 987.93512508 125.56552693 984.21337031 129.60714722 980.74584961 C134.21535592 976.79012551 138.46762191 972.49848498 142.7411499 968.18701172 C144.22013818 966.69503531 145.70242411 965.2064022 147.18551636 963.71850586 C150.33347158 960.55923008 153.47745179 957.39601751 156.62081909 954.23217773 C160.26896692 950.56026985 163.91881254 946.89008216 167.57293701 943.22412109 C169.01946978 941.77119866 170.46291076 940.31525493 171.90621948 938.85913086 C176.46268453 934.28584018 181.06862098 929.85618529 185.96994019 925.65374756 C187.87545839 924.01290815 189.68481066 922.29731277 191.46456909 920.52124023 C192.07042847 919.91666992 192.67628784 919.31209961 193.30050659 918.68920898 C193.90120972 918.08463867 194.50191284 917.48006836 195.12081909 916.85717773 C195.75245972 916.2294043 196.38410034 915.60163086 197.03488159 914.95483398 C197.63042847 914.35799805 198.22597534 913.76116211 198.83956909 913.14624023 C199.37517456 912.60950684 199.91078003 912.07277344 200.46261597 911.51977539 C201.73227946 910.39690849 201.73227946 910.39690849 201.62081909 909.23217773 C200.64137329 909.08184082 199.66192749 908.93150391 198.65280151 908.77661133 C178.12157316 905.60908049 157.83773331 902.05778069 137.62081909 897.23217773 C135.84109994 896.81713307 134.06116133 896.40302797 132.28097534 895.98999023 C127.99646405 894.99024374 123.71976022 893.96095892 119.44552612 892.91821289 C117.45279413 892.43423909 115.45885754 891.95521211 113.46408081 891.47973633 C74.05882861 882.08110944 30.14556839 870.93985659 -3.37918091 847.23217773 C-7.41286745 849.12120057 -10.54419938 851.75905694 -13.87918091 854.66967773 C-14.49575562 855.20246338 -15.11233032 855.73524902 -15.74758911 856.28417969 C-20.26177778 860.20474704 -24.67079386 864.22999347 -29.05130005 868.29858398 C-32.2130758 871.21698448 -35.46298568 873.97509024 -38.81668091 876.66967773 C-43.59620013 880.51392413 -48.07238435 884.60306818 -52.54519653 888.79272461 C-55.87055368 891.88983239 -59.26628898 894.82832149 -62.81668091 897.66967773 C-67.83066012 901.69107882 -72.49141966 906.01135964 -77.16555786 910.4152832 C-81.64253496 914.60978363 -86.26302169 918.52014285 -91.07449341 922.32983398 C-93.31977663 924.18314403 -95.35697032 926.14007507 -97.37918091 928.23217773 C-95.87441565 933.51400477 -92.4145473 936.71020713 -88.69168091 940.54467773 C-87.41217901 941.88761263 -86.13352263 943.23135364 -84.85574341 944.57592773 C-84.24762817 945.21272461 -83.63951294 945.84952148 -83.01296997 946.50561523 C-80.59906407 949.0565929 -78.29740383 951.69491474 -76.00808716 954.35717773 C-74.04253002 956.61968955 -72.02244782 958.82908456 -70.00418091 961.04467773 C-66.95059224 964.42158755 -64.03488886 967.86434905 -61.19168091 971.41967773 C-56.88382587 976.7535718 -52.24058225 981.7073326 -47.53274536 986.68408203 C-43.3937488 991.08214974 -39.55208476 995.63480574 -35.78543091 1000.35717773 C-32.78176086 1003.94597832 -29.59443937 1007.33338444 -26.37918091 1010.73217773 C-21.62024027 1015.76277038 -17.13974445 1020.89682194 -12.82058716 1026.31420898 C-7.61848753 1032.53175846 -1.9570052 1038.35284942 3.62081909 1044.23217773 C0.51477277 1044.23217773 -0.57314891 1043.82063267 -3.27371216 1042.46313477 C-4.05303101 1042.07497589 -4.83234985 1041.68681702 -5.63528442 1041.28689575 C-6.47889526 1040.85891693 -7.3225061 1040.43093811 -8.19168091 1039.98999023 C-9.51607178 1039.32638992 -9.51607178 1039.32638992 -10.86721802 1038.64938354 C-12.74826186 1037.70549288 -14.62786136 1036.75871929 -16.50613403 1035.80932617 C-19.30982298 1034.3922339 -22.11743689 1032.98321879 -24.92605591 1031.57592773 C-33.6636766 1027.18796782 -42.3642371 1022.73928387 -51.00418091 1018.16186523 C-60.71345517 1013.01796545 -70.53599812 1008.11372518 -80.37918091 1003.23217773 C-91.06390382 997.93328377 -101.6994457 992.56850454 -112.23709106 986.98217773 C-121.20575583 982.24135969 -130.29138709 977.73910376 -139.37918091 973.23217773 C-149.11940773 968.40168942 -158.8395292 963.55152402 -168.44168091 958.45092773 C-180.63694276 951.97961868 -193.01737284 945.87726527 -205.37918091 939.73217773 C-220.80347683 932.06471937 -236.18479911 924.34756923 -251.37918091 916.23217773 C-246.11243419 910.89169209 -246.11243419 910.89169209 -243.20730591 908.57592773 C-242.34818604 907.88877686 -242.34818604 907.88877686 -241.47171021 907.18774414 C-240.5596582 906.46723877 -240.5596582 906.46723877 -239.62918091 905.73217773 C-238.97796265 905.21445801 -238.32674438 904.69673828 -237.65579224 904.16333008 C-232.13258536 899.78966976 -226.5437145 895.50363094 -220.93777466 891.23681641 C-215.64220942 887.20578322 -210.37834318 883.1359284 -205.12918091 879.04467773 C-200.0572742 875.09202525 -194.9799808 871.14749021 -189.87918091 867.23217773 C-184.6960229 863.25318775 -179.53478229 859.24679856 -174.37918091 855.23217773 C-166.05365931 848.74990974 -157.69581513 842.31143673 -149.32449341 835.88842773 C-142.20608636 830.42092307 -135.11469277 824.9196786 -128.03274536 819.4050293 C-123.6585738 816.00037869 -119.2760072 812.60751913 -114.87918091 809.23217773 C-113.32374555 808.035689 -111.76832165 806.83918532 -110.21316528 805.64233398 C-108.84021749 804.58667019 -107.46637105 803.53217496 -106.09207153 802.47827148 C-103.60151118 800.566683 -101.11508339 798.64981814 -98.62918091 796.73217773 C-97.82931763 796.11987305 -97.02945435 795.50756836 -96.20535278 794.87670898 C-95.46349731 794.30307617 -94.72164185 793.72944336 -93.95730591 793.13842773 C-93.29118286 792.62602539 -92.62505981 792.11362305 -91.93875122 791.58569336 C-90.25163764 790.29573845 -90.25163764 790.29573845 -89.37918091 788.23217773 C-89.95192749 787.98395264 -90.52467407 787.73572754 -91.11477661 787.47998047 C-93.72622913 786.04093639 -95.49825752 784.37209025 -97.60964966 782.26733398 C-98.40822388 781.47286865 -99.2067981 780.67840332 -100.02957153 779.85986328 C-100.86681763 779.01335205 -101.70406372 778.16684082 -102.56668091 777.29467773 C-103.42584106 776.4294751 -104.28500122 775.56427246 -105.17019653 774.67285156 C-110.9769071 768.77492744 -116.34807144 762.80681204 -121.37918091 756.23217773 C-122.1977356 755.23057617 -123.01629028 754.22897461 -123.85964966 753.19702148 C-135.9662552 738.34616342 -146.45584277 722.17825381 -155.37918091 705.23217773 C-155.71610962 704.60069824 -156.05303833 703.96921875 -156.400177 703.31860352 C-161.84607905 693.05387175 -166.26451788 682.47047508 -170.43972778 671.63354492 C-171.0757038 670.00790559 -171.72860301 668.38880289 -172.39675903 666.77612305 C-174.84512191 660.85498739 -176.76840395 654.93249067 -178.37918091 648.73217773 C-178.63336792 647.75821045 -178.88755493 646.78424316 -179.14944458 645.78076172 C-181.86386229 634.94796231 -183.53579258 623.95945726 -185.01882935 612.89892578 C-185.31015224 610.74301794 -185.63788161 608.5920491 -185.97683716 606.44311523 C-186.76752563 599.94068781 -186.53076455 593.33547034 -186.50418091 586.79467773 C-186.50196533 586.07476654 -186.49974976 585.35485535 -186.49746704 584.61312866 C-186.40380237 558.70584075 -184.7182988 532.22351723 -177.37918091 507.23217773 C-177.12716919 506.36415527 -176.87515747 505.49613281 -176.61550903 504.60180664 C-168.11226499 475.94508868 -155.29573108 450.68591058 -134.37918091 429.23217773 C-133.81328247 428.6044043 -133.24738403 427.97663086 -132.66433716 427.32983398 C-107.52897032 400.1478215 -65.72139269 387.4636161 -29.79714966 385.91577148 C-24.97756562 385.80930389 -20.19061208 385.95449005 -15.37918091 386.23217773 C-14.15070435 386.29147461 -12.92222778 386.35077148 -11.65652466 386.41186523 C12.77596834 388.63054123 35.4607725 400.53814391 54.62081909 415.23217773 C55.4935144 415.88057617 56.36620972 416.52897461 57.26535034 417.19702148 C71.77175699 428.45007119 85.00830581 442.25896717 95.62081909 457.23217773 C96.01414429 457.77052246 96.40746948 458.30886719 96.81271362 458.86352539 C130.08460097 504.78174096 133.14832701 576.97039513 124.62081909 631.23217773 C123.56487501 637.63750522 122.17465259 643.93097093 120.62081909 650.23217773 C120.36252319 651.29533203 120.10422729 652.35848633 119.83810425 653.45385742 C118.96801274 657.00884535 118.0796399 660.55871634 117.18331909 664.10717773 C116.90713745 665.21254883 116.63095581 666.31791992 116.34640503 667.45678711 C113.10334563 679.97267726 108.31087021 691.42599384 102.30831909 702.85717773 C101.40569336 704.5844812 101.40569336 704.5844812 100.48483276 706.34667969 C76.06433231 752.72109508 76.06433231 752.72109508 61.66769409 766.55639648 C60.37312947 768.25941155 60.37312947 768.25941155 60.81613159 770.73999023 C64.12414886 780.98520876 77.25646224 787.46994046 86.23019409 792.18139648 C89.98220306 794.00415193 93.75406432 795.67138793 97.62081909 797.23217773 C98.65625854 797.65080078 98.65625854 797.65080078 99.71261597 798.07788086 C110.75818942 802.43458054 122.11939089 805.53832034 133.62081909 808.41967773 C134.90077759 808.74057373 136.18073608 809.06146973 137.4994812 809.39208984 C155.6501911 813.82531804 173.83717778 817.01418096 192.37081909 819.35717773 C193.87804031 819.55144348 193.87804031 819.55144348 195.41571045 819.74963379 C207.68178234 821.3303075 219.93567038 822.85028393 232.2819519 823.65063477 C237.04650165 823.96286077 241.70787384 824.51666567 246.42721558 825.25854492 C247.58954208 825.44036316 248.75186859 825.6221814 249.94941711 825.80950928 C250.83097977 825.94898987 251.71254242 826.08847046 252.62081909 826.23217773 C252.83702097 771.94639836 252.97357336 717.6609142 253.00461676 663.37469606 C253.00835669 656.95292194 253.01275006 650.53114842 253.01754761 644.109375 C253.01849165 642.83101765 253.01943569 641.5526603 253.02040834 640.23556485 C253.03721134 619.58790266 253.10684411 598.94074403 253.19630563 578.29328338 C253.28704399 557.07706991 253.32030257 535.86131618 253.30117947 514.64491481 C253.29117945 501.57285546 253.32499967 488.50246527 253.41647065 475.4307157 C253.47504498 466.44373329 253.47734329 457.45778538 253.43716996 448.47070745 C253.4156609 443.29953642 253.41724557 438.13138575 253.48627663 432.96056366 C253.79174849 408.66680702 251.91548966 390.891136 238.49734223 370.17978323 C235.54774768 365.54661835 233.01182314 360.70295682 230.43331909 355.85717773 C229.46315741 354.08757866 228.49081975 352.31916904 227.51535034 350.55249023 C224.4690135 344.98764208 221.53931792 339.36486629 218.62081909 333.73217773 C214.70835121 326.18220311 210.71513368 318.68510977 206.62081909 311.23217773 C202.52650166 303.77924053 198.53349326 296.28204836 194.62081909 288.73217773 C190.82714324 281.41475359 186.96531578 274.14322675 182.99581909 266.91967773 C177.83927617 257.5311301 172.81140902 248.07801185 167.80831909 238.60717773 C167.035684 237.14571495 166.26297894 235.68428915 165.49020386 234.22290039 C165.10794144 233.49997803 164.72567902 232.77705566 164.33183289 232.03222656 C163.95024521 231.31059326 163.56865753 230.58895996 163.17550659 229.84545898 C162.7944426 229.12479248 162.4133786 228.40412598 162.02076721 227.66162109 C161.26000491 226.22290179 160.49920714 224.78420123 159.7383728 223.34552002 C159.00232389 221.95361976 158.2663995 220.56165365 157.53060913 219.1696167 C155.486022 215.30236547 153.43684848 211.43761444 151.3807373 207.57647705 C150.46893161 205.86165381 149.56174793 204.14437539 148.65475464 202.42700195 C135.5923168 177.93610214 116.50687518 152.63699382 94.62081909 135.23217773 C93.6578894 134.45487305 92.69495972 133.67756836 91.70285034 132.87670898 C80.40518965 123.88669215 68.40497867 115.88535459 54.62081909 111.23217773 C53.82893188 110.96002441 53.03704468 110.68787109 52.22116089 110.4074707 C42.42875771 107.49219479 32.66852301 107.86060727 22.55831909 107.98217773 C20.64206474 107.99414574 18.72580448 108.00520053 16.80953979 108.01538086 C3.55757462 108.10540412 -9.68513259 108.42978441 -22.92947388 108.87353516 C-37.08091355 109.3396869 -51.22106762 109.334374 -65.37918091 109.23217773 C-67.04742476 105.23283347 -68.71384985 101.23273574 -70.37918091 97.23217773 C-70.66905884 96.53705078 -70.95893677 95.84192383 -71.25759888 95.12573242 C-74.61295523 87.04247862 -77.55338614 78.89402562 -80.26956177 70.57568359 C-81.78797616 65.94254742 -83.44364044 61.41887295 -85.31668091 56.91577148 C-86.77804658 53.22474864 -88.07266399 49.48032898 -89.37918091 45.73217773 C-91.24224624 40.39661686 -93.17495126 35.11726912 -95.31277466 29.88452148 C-96.73374471 26.35031392 -98.09310797 22.79454746 -99.44168091 19.23217773 C-99.68724731 18.59143311 -99.93281372 17.95068848 -100.18582153 17.29052734 C-101.5931523 13.55572429 -102.83422876 9.80093325 -103.97073364 5.97436523 C-104.368563 4.63801025 -104.368563 4.63801025 -104.77442932 3.2746582 C-104.97399734 2.60063965 -105.17356537 1.92662109 -105.37918091 1.23217773 C-70.25562305 0.56497092 -35.13005612 0.09817851 0 0 Z " fill="#434242" transform="translate(1365.3791809082031,531.767822265625)"/>
<path d="M0 0 C538.56 0 1077.12 0 1632 0 C1632 88.77 1632 177.54 1632 269 C1627.50649904 263.3831238 1627.50649904 263.3831238 1625.9140625 260.41796875 C1625.54845215 259.74652832 1625.1828418 259.07508789 1624.80615234 258.38330078 C1624.41637207 257.65868652 1624.0265918 256.93407227 1623.625 256.1875 C1619.6571435 248.92981001 1615.56105623 241.75895827 1611.375 234.625 C1606.19158884 225.78275222 1601.0731201 216.9057812 1596 208 C1590.46048161 198.27856294 1584.86624806 188.59104683 1579.21655273 178.93310547 C1574.97382715 171.67788254 1570.76004836 164.40645033 1566.5625 157.125 C1565.64259277 155.52942261 1565.64259277 155.52942261 1564.70410156 153.90161133 C1561.75084543 148.7774109 1558.79960456 143.65205281 1555.8495636 138.52600098 C1554.46340262 136.11782525 1553.07647251 133.71009301 1551.68942261 131.3024292 C1550.70760702 129.59741766 1549.72696016 127.8917333 1548.74633789 126.18603516 C1547.85676392 124.64181885 1547.85676392 124.64181885 1546.94921875 123.06640625 C1546.16550903 121.7043103 1546.16550903 121.7043103 1545.3659668 120.31469727 C1544.30022034 118.50873799 1543.16319248 116.74478871 1542 115 C1539.26483112 114.68673878 1536.7523651 114.57309488 1534.01235962 114.58349609 C1533.17042041 114.57488808 1532.32848121 114.56628006 1531.4610287 114.55741119 C1528.59844762 114.53185311 1525.73622165 114.52783717 1522.87353516 114.5234375 C1520.8007861 114.50935249 1518.72804569 114.49394363 1516.6553154 114.47732544 C1510.88903869 114.43492441 1505.1228072 114.41129489 1499.35641813 114.39035034 C1493.06783619 114.36420663 1486.77937144 114.3207696 1480.49087524 114.27929688 C1469.34376706 114.2079936 1458.19664007 114.14738534 1447.04943848 114.09277344 C1430.08140942 114.00932956 1413.11357669 113.90194571 1396.14571607 113.78980517 C1354.1121098 113.51214396 1312.07832145 113.2690456 1270.04446936 113.03199673 C1264.31997591 112.99970653 1258.5954833 112.96726991 1252.87099075 112.93482208 C1195.5807297 112.61022951 1138.29041068 112.29706104 1081 112 C1080.18011931 111.99574847 1079.36023862 111.99149694 1078.51551306 111.98711658 C990.1231585 111.52909096 901.73036225 111.13599329 670.42198271 110.87860382 C662.11967358 110.87682723 653.81736517 110.87463822 645.51505661 110.87102509 C580.44266896 110.84274552 515.37235753 110.86050214 450.30188727 111.4139123 C446.69185134 111.4445787 443.08180896 111.47438013 439.47176552 111.50414658 C416.98657615 111.69293628 394.50487397 111.95179086 372.0246582 112.47216797 C371.19112835 112.4908733 370.3575985 112.50957863 369.49881017 112.52885079 C368.6944788 112.5472721 367.89014743 112.5656934 367.06144238 112.58467293 C366.37014553 112.60040922 365.67884869 112.61614552 364.96660346 112.63235867 C354.2881673 112.91845001 343.68188158 113.46590592 333 114 C333 714.27 333 1314.54 333 1933 C336.96 1933.66 340.92 1934.32 345 1935 C350.08901502 1935.90703165 355.16960933 1936.85847799 360.25 1937.8125 C361.30444305 1938.00999847 361.30444305 1938.00999847 362.38018799 1938.21148682 C371.06512624 1939.8407543 379.73214224 1941.53374289 388.375 1943.375 C397.75114264 1945.36852939 407.15401795 1947.18416355 416.57366943 1948.95709229 C533.49580533 1970.9731716 533.49580533 1970.9731716 571 1981 C571 1981.66 571 1982.32 571 1983 C558.34594761 1983.02376879 545.69190098 1983.04122804 533.03783035 1983.05181217 C527.15428092 1983.05690646 521.27074733 1983.06373878 515.38720703 1983.07543945 C489.59582567 1983.12527364 463.81843513 1983.01865811 438.03125 1982.53125 C413.00548153 1982.05919061 387.9827129 1981.82865495 362.953125 1981.68359375 C362.02209992 1981.67817668 361.09107485 1981.67275961 360.13183689 1981.66717839 C348.74237668 1981.60131629 337.352891 1981.54084926 325.96338964 1981.48259121 C316.11950719 1981.43209821 306.27564781 1981.37761544 296.43178797 1981.32291877 C276.28788026 1981.21107388 256.14395039 1981.10385621 236 1981 C235.87366784 1914.51261775 235.99019614 1848.02939283 236.40571976 1781.54317474 C236.43175856 1777.37431948 236.45715993 1773.20546065 236.4823398 1769.03660011 C236.670905 1737.8612747 236.88611956 1706.68632203 237.22314453 1675.51220703 C237.23307045 1674.593731 237.24299636 1673.67525497 237.25322306 1672.72894633 C237.30482553 1667.96277456 237.35669328 1663.1966057 237.4085865 1658.43043709 C237.86985385 1616.01668291 238.21245832 1573.60272032 238.5 1531.1875 C238.50770742 1530.05191536 238.50770742 1530.05191536 238.51557055 1528.89338961 C238.64819977 1509.34749451 238.77786281 1489.80158016 238.90624958 1470.25565678 C239.09647022 1441.2976892 239.29006476 1412.3397439 239.48443723 1383.38180393 C239.4999785 1381.06570486 239.51550449 1378.74960569 239.53102684 1376.43350649 C239.82836562 1332.07813096 240.14164213 1287.72290142 240.48340005 1243.36784442 C240.51989949 1238.6299157 240.55609442 1233.89198475 240.59216309 1229.15405273 C240.82428641 1198.73320452 241.09470875 1168.31319595 241.4405365 1137.89342117 C241.98030319 1090.28698028 242.25722817 1042.67970544 242.53125 995.07116318 C242.77563935 952.62822437 243.03847265 910.18699413 243.53125 867.74606323 C243.85623083 839.676161 244.08050307 811.60636802 244.25 783.53515625 C244.25522989 782.67177729 244.26045979 781.80839834 244.26584816 780.91885638 C244.37153068 763.45524315 244.4736533 745.99161135 244.56770086 728.52793139 C244.61626309 719.5186106 244.66651036 710.50930024 244.71875 701.5 C244.72355188 700.67090913 244.72835377 699.84181826 244.73330116 698.98760343 C244.88412972 673.14613204 245.12053608 647.30631705 245.40431213 621.46598816 C245.86647915 579.37074442 246.20467913 537.27542412 246.48447537 495.17864847 C246.50000309 492.84328472 246.51557091 490.50792124 246.53114891 488.17255783 C246.69044258 464.28172474 246.84561437 440.39086523 247 416.5 C247.93831951 271.29694505 247.93831951 271.29694505 248.47036743 218.90104485 C248.50680226 215.29563152 248.54220042 211.6902084 248.57737732 208.0847826 C248.89255177 177.05261485 249.46498932 146.03061953 250 115 C166.51 115 83.02 115 -3 115 C-3 64.0955262 -3 64.0955262 -2.20043945 42.16796875 C-2.05796327 38.25025189 -1.92772212 34.33224794 -1.79882812 30.4140625 C-1.71161514 27.86716421 -1.6237522 25.32028806 -1.53515625 22.7734375 C-1.49656998 21.62878021 -1.4579837 20.48412292 -1.41822815 19.30477905 C-1.37826218 18.22628693 -1.3382962 17.1477948 -1.29711914 16.03662109 C-1.26380997 15.10788177 -1.23050079 14.17914246 -1.19618225 13.22225952 C-0.9272455 8.80501986 -0.44034565 4.40345647 0 0 Z " fill="#434242" transform="translate(362,304)"/>
<path d="M0 0 C3.62439921 2.75039558 6.83436344 5.737398 10 9 C10.93392578 9.92039062 10.93392578 9.92039062 11.88671875 10.859375 C23.20141585 22.75887666 28.54776195 38.2830448 31.6875 54.0625 C31.89955078 55.07376953 32.11160156 56.08503906 32.33007812 57.12695312 C42.1145888 105.06179564 33.37210271 162.93630251 7.00561523 204.26293945 C-1.21685963 216.57239898 -10.86395343 226.55839641 -23 235 C-52.37245368 221.26232679 -75.58812559 184.14624113 -87 155 C-101.36101047 114.88198872 -106.63600741 66.66083114 -88.5234375 26.74609375 C-79.51231112 9.42256469 -66.54529201 -1.81935398 -48.06640625 -8.0546875 C-47.05449219 -8.36664062 -46.04257813 -8.67859375 -45 -9 C-44.360625 -9.20367188 -43.72125 -9.40734375 -43.0625 -9.6171875 C-27.59996984 -12.48712681 -13.18261078 -7.90650786 0 0 Z " fill="#FEFEFE" transform="translate(1365,1023)"/>
</svg>
